<?xml version="1.0" encoding="UTF-8"?>
<svg xmlns="http://www.w3.org/2000/svg" xmlns:xlink="http://www.w3.org/1999/xlink" width="101pt" height="24pt" viewBox="0 0 101 24" version="1.1">
<g id="surface1">
<path style=" stroke:none;fill-rule:nonzero;fill:rgb(0.392157%,0.392157%,0.392157%);fill-opacity:1;" d="M 0 22.40625 L 12.445312 22.40625 C 12.503906 22.464844 12.5625 22.527344 12.625 22.527344 L 12.683594 22.585938 L 12.742188 22.648438 C 12.800781 22.707031 12.863281 22.707031 12.921875 22.765625 C 12.980469 22.828125 13.039062 22.886719 13.160156 22.945312 L 13.160156 23.367188 L 0 23.367188 Z M 27.269531 22.828125 L 28.164062 23.546875 L 100.808594 23.546875 L 100.808594 22.40625 L 27.269531 22.40625 Z M 32.75 2.761719 C 34.535156 4.566406 35.488281 7.027344 35.488281 9.910156 C 35.488281 12.734375 34.476562 15.257812 32.691406 17.058594 C 30.902344 18.863281 28.402344 19.882812 25.605469 19.882812 C 22.449219 19.882812 19.648438 18.621094 17.804688 16.339844 C 16.433594 14.597656 15.660156 12.375 15.660156 9.972656 C 15.660156 6.789062 16.910156 3.964844 19.113281 2.164062 C 20.898438 0.722656 23.101562 0 25.605469 0 C 28.460938 0 30.960938 0.960938 32.75 2.761719 M 25.605469 17.839844 C 28.402344 17.839844 30.605469 16.160156 31.558594 13.214844 C 31.914062 12.195312 32.09375 11.054688 32.09375 9.910156 C 32.09375 7.867188 31.558594 5.945312 30.546875 4.503906 C 29.355469 2.824219 27.6875 1.980469 25.605469 1.980469 C 23.9375 1.980469 22.507812 2.582031 21.375 3.722656 C 19.945312 5.164062 19.054688 7.507812 19.113281 9.972656 C 19.113281 11.59375 19.472656 13.15625 20.183594 14.414062 C 21.257812 16.636719 23.28125 17.839844 25.605469 17.839844 M 25.605469 19.761719 Z M 44.359375 8.53125 C 44.183594 8.46875 43.945312 8.351562 43.644531 8.230469 C 42.15625 7.6875 39.894531 6.847656 39.953125 4.683594 C 40.011719 3.125 41.265625 1.980469 42.871094 1.980469 C 44.421875 1.980469 45.550781 2.824219 45.96875 4.144531 L 45.96875 4.207031 L 46.386719 4.386719 L 47.636719 1.621094 L 47.574219 1.5625 C 46.503906 0.539062 45.074219 0.0585938 43.40625 0.0585938 C 40.25 0.0585938 37.75 1.800781 37.214844 4.445312 C 36.859375 6.1875 37.332031 7.867188 38.464844 8.949219 C 39.296875 9.792969 40.492188 10.273438 41.5625 10.753906 L 41.621094 10.753906 C 42.753906 11.234375 44.359375 11.832031 45.195312 12.855469 C 45.671875 13.457031 45.847656 14.238281 45.730469 15.136719 C 45.492188 16.699219 44.300781 17.78125 42.695312 17.839844 C 40.3125 17.960938 38.226562 16.519531 37.871094 14.71875 L 37.871094 14.65625 L 37.394531 14.476562 L 36.5 17.539062 L 36.5625 17.601562 C 37.753906 18.980469 39.777344 19.761719 42.097656 19.761719 L 42.335938 19.761719 C 45.96875 19.644531 48.648438 17.058594 48.648438 13.636719 C 48.707031 11.535156 47.21875 9.792969 44.363281 8.53125 M 97.296875 0.359375 L 98.011719 1.5 L 98.011719 12.496094 L 87.292969 0.421875 L 87.230469 0.359375 L 83.71875 0.359375 L 84.671875 1.863281 L 84.671875 18.441406 L 83.957031 19.585938 L 87.707031 19.585938 L 87.171875 18.503906 L 87.171875 5.105469 L 100.332031 19.703125 L 100.511719 19.945312 L 100.511719 1.5625 L 101.046875 0.359375 Z M 73.714844 17.539062 L 73.714844 10.691406 L 79.730469 10.691406 L 80.445312 8.648438 L 80.085938 8.769531 L 73.65625 8.769531 L 73.65625 2.28125 L 78.835938 2.28125 L 80.625 2.882812 L 81.515625 0.359375 L 69.90625 0.359375 L 70.441406 1.804688 L 70.441406 18.261719 L 69.90625 19.585938 L 81.277344 19.585938 L 82.171875 17 L 79.910156 17.601562 L 73.714844 17.601562 Z M 67.941406 0.359375 L 63.535156 0.359375 L 64.25 1.5 L 64.25 8.832031 L 54.125 8.832031 L 54.125 1.441406 L 54.660156 0.359375 L 50.253906 0.359375 L 50.96875 1.5 L 50.96875 18.441406 L 50.253906 19.582031 L 54.660156 19.582031 L 54.125 18.5 L 54.125 10.691406 L 64.246094 10.691406 L 64.246094 18.382812 L 63.535156 19.523438 L 67.941406 19.523438 L 67.402344 18.441406 L 67.402344 1.441406 L 67.9375 0.359375 Z M 24.175781 22.765625 L 23.699219 22.765625 C 20.421875 22.765625 16.96875 20.484375 13.457031 16.039062 C 12.085938 14.296875 10.539062 12.3125 9.167969 10.691406 C 11.910156 10.210938 13.8125 8.050781 13.8125 5.464844 C 13.8125 2.222656 11.253906 0.179688 7.144531 0.179688 L 0.832031 0.359375 L 1.429688 1.800781 L 1.429688 18.441406 L 0.773438 19.582031 L 5.179688 19.582031 L 4.644531 18.5 L 4.644531 2.042969 C 8.695312 1.742188 10.597656 2.824219 10.777344 5.464844 C 10.835938 6.546875 10.539062 7.507812 9.824219 8.289062 C 8.933594 9.3125 7.441406 9.910156 5.539062 9.972656 L 5.476562 9.972656 L 5.300781 10.453125 L 7.742188 13.515625 L 8.21875 14.117188 C 12.503906 19.640625 15.898438 24.027344 21.082031 24.027344 C 22.152344 24.027344 23.285156 23.847656 24.472656 23.488281 L 24.59375 23.425781 L 24.238281 22.765625 Z M 24.175781 22.765625 "/>
</g>
</svg>
